<?xml version="1.0" encoding="utf-8"?>
<!-- Generator: Adobe Illustrator 16.0.0, SVG Export Plug-In . SVG Version: 6.00 Build 0)  -->
<!DOCTYPE svg PUBLIC "-//W3C//DTD SVG 1.1//EN" "http://www.w3.org/Graphics/SVG/1.1/DTD/svg11.dtd">
<svg version="1.1" id="Layer_1" xmlns="http://www.w3.org/2000/svg" xmlns:xlink="http://www.w3.org/1999/xlink" x="0px" y="0px"
	 width="304.203px" height="228px" viewBox="-277.094 -251 304.203 228" enable-background="new -277.094 -251 304.203 228"
	 xml:space="preserve">
<path fill="#DAE3E3" d="M-439.626,80.363c-1.408,0-2.832,0.108-4.271,0.312c-16.274,2.328-26.24,18.387-29.617,24.821
	c3.367,6.431,13.333,22.497,29.617,24.815c1.439,0.215,2.883,0.324,4.292,0.324c14.616,0,26.525-11.291,26.525-25.141
	C-413.08,91.645-424.992,80.363-439.626,80.363z M-428.746,109.501h-8.201v8.216h-7.821v-8.216h-8.211v-7.802h8.211v-8.224h7.821
	v8.224h8.201V109.501z"/>
<path fill="#DAE3E3" d="M-518.476,80.676c-1.418-0.204-2.86-0.312-4.258-0.312c-14.649,0-26.551,11.281-26.551,25.134
	c0,13.85,11.894,25.141,26.53,25.141c1.419,0,2.853-0.11,4.279-0.323c16.287-2.32,26.255-18.375,29.635-24.816
	C-492.213,99.066-502.169,83.001-518.476,80.676z M-509.623,109.501h-24.223v-7.804h24.223V109.501z"/>
<path fill="#DAE3E3" d="M-633.094-4.5v220h304.203v-220H-633.094z M-439.605,144.426c-2.073,0-4.162-0.141-6.235-0.436
	c-17.301-2.48-28.855-14.91-35.333-24.479c-6.507,9.568-18.072,21.997-35.357,24.479c-2.076,0.295-4.154,0.436-6.227,0.436
	c-22.231,0-40.339-17.465-40.339-38.922c0-21.451,18.11-38.914,40.36-38.914c2.063,0,4.131,0.135,6.207,0.438
	c17.285,2.471,28.855,14.901,35.357,24.444c6.479-9.543,18.032-21.974,35.333-24.444c2.073-0.303,4.162-0.438,6.214-0.438
	c22.247,0,40.342,17.463,40.342,38.914C-399.284,126.961-417.379,144.426-439.605,144.426z"/>
<g>
	<path fill="#DAE3E3" d="M-162.279-161.832c-1.418-0.204-2.86-0.312-4.258-0.312c-14.649,0-26.551,11.281-26.551,25.134
		c0,13.85,11.894,25.141,26.53,25.141c1.419,0,2.853-0.11,4.279-0.323c16.287-2.32,26.255-18.375,29.635-24.816
		C-136.016-143.441-145.972-159.507-162.279-161.832z M-153.426-133.007h-24.223v-7.804h24.223V-133.007z"/>
	<path fill="#DAE3E3" d="M-83.429-162.145c-1.408,0-2.832,0.108-4.271,0.312c-16.274,2.328-26.24,18.387-29.617,24.821
		c3.367,6.431,13.333,22.497,29.617,24.815c1.439,0.215,2.883,0.324,4.292,0.324c14.616,0,26.525-11.291,26.525-25.141
		C-56.883-150.863-68.795-162.145-83.429-162.145z M-72.549-133.007h-8.201v8.216h-7.821v-8.216h-8.211v-7.802h8.211v-8.224h7.821
		v8.224h8.201V-133.007z"/>
	<path fill="#DAE3E3" d="M-277.094-251v228H27.109v-228H-277.094z M-83.408-98.082c-2.073,0-4.162-0.141-6.235-0.436
		c-17.301-2.48-28.855-14.91-35.333-24.479c-6.507,9.568-18.072,21.997-35.357,24.479c-2.076,0.295-4.154,0.436-6.227,0.436
		c-22.231,0-40.339-17.465-40.339-38.922c0-21.451,18.11-38.914,40.36-38.914c2.063,0,4.131,0.135,6.207,0.438
		c17.285,2.471,28.855,14.901,35.357,24.444c6.479-9.543,18.032-21.974,35.333-24.444c2.073-0.303,4.162-0.438,6.214-0.438
		c22.247,0,40.342,17.463,40.342,38.914C-43.087-115.547-61.182-98.082-83.408-98.082z"/>
</g>
</svg>
